<svg id="Layer_1" data-name="Layer 1" xmlns="http://www.w3.org/2000/svg" viewBox="0 0 584.78 182.76"><defs><style>.cls-1{font-size:92.58px;font-family:Dosis-Bold, Dosis;font-weight:700;}.cls-1,.cls-4{fill:#6a665b;}.cls-2{letter-spacing:-0.02em;}.cls-3{letter-spacing:0em;}</style></defs><title>octoseek-logo_FINAL</title><text class="cls-1" transform="translate(183.08 128.37)">OCT<tspan class="cls-2" x="152.75" y="0">O</tspan><tspan class="cls-3" x="203.86" y="0">SEEK</tspan></text><polygon class="cls-4" points="145.81 92.41 145.81 92.95 144.83 92.41 145.81 92.41"/><path class="cls-4" d="M99.78,142.62a44.53,44.53,0,0,0,7.53-2.16L95.86,179.1a5.1,5.1,0,0,1-9.79,0L74.62,140.44a44.76,44.76,0,0,0,7.57,2.18c1.32.26,2.67.47,4,.61a46.77,46.77,0,0,0,4.75.25c1.37,0,2.74-.06,4.08-.18A42.9,42.9,0,0,0,99.78,142.62Z"/><path class="cls-4" d="M136.42,101.23c.09-1.09.12-2.19.12-3.31a45.42,45.42,0,0,0-.33-5.51c-.14-1.11-.31-2.21-.53-3.29-.12-.65-.27-1.31-.43-2l9.58,5.24,1,.54.33.17a5.1,5.1,0,0,1,0,9L135.41,108c.1-.41.19-.81.27-1.23A42.91,42.91,0,0,0,136.42,101.23Z"/><path class="cls-4" d="M116.37,60.08a44.55,44.55,0,0,0-8.54-4.49L154.54,27a5.58,5.58,0,0,1,1.41-.61l16.6-16.59A4.41,4.41,0,0,1,178.78,16l-16.6,16.6a4.44,4.44,0,0,1-.61,1.41L133.1,80.52a45.31,45.31,0,0,0-4.28-8q-1.32-2-2.81-3.75a45.43,45.43,0,0,0-6.27-6.21C118.66,61.7,117.53,60.87,116.37,60.08Z"/><path class="cls-4" d="M65.59,135.76l1,.67-11.5,3.36-.15,0L35.23,159.58A4.41,4.41,0,1,1,29,153.34l19.75-19.75h0l0-.13,3.4-11.65c.32.5.64,1,1,1.5.78,1.17,1.62,2.29,2.51,3.38a44.74,44.74,0,0,0,6.2,6.26A42.41,42.41,0,0,0,65.59,135.76Z"/><path class="cls-4" d="M45.4,45.27,71.12,56.92a44.37,44.37,0,0,0-5.53,3.16c-.86.58-1.69,1.19-2.51,1.83a44.83,44.83,0,0,0-6.42,6,45.9,45.9,0,0,0-3.51,4.58,45.09,45.09,0,0,0-2.94,5L38.64,52A5.11,5.11,0,0,1,45.4,45.27Z"/><path class="cls-4" d="M101.57,53.61l-1.79-.17c-1.55-.15-3.12-.25-4.73-.32C93.72,53.06,92.35,53,91,53c-1.6,0-3.19,0-4.75.11-1.37.07-2.72.16-4,.29l-1.83.18,5.88-5v-45A3.59,3.59,0,0,1,89.82,0h1.64a3.59,3.59,0,0,1,3.59,3.59V48.14a2.44,2.44,0,0,1,.39.28Z"/><path class="cls-4" d="M169.24,164.25l-43.32-43.32a42,42,0,1,0-9.82,10.43l43,43a5.7,5.7,0,0,0,8.07,0l2.05-2.05A5.7,5.7,0,0,0,169.24,164.25ZM57,97.88a33.92,33.92,0,1,1,33.92,33.91A34,34,0,0,1,57,97.88Z"/><path class="cls-4" d="M45.43,97.92c0,1.12.5,7,.86,8.8,0,0,0,0,0,.07A4.31,4.31,0,0,1,41.61,112h-.1a.1.1,0,0,1-.09,0l-39.12-11a3.55,3.55,0,0,1,0-6.64L41,83.34a4.31,4.31,0,0,1,5.42,5C46.39,88.62,45.43,96.05,45.43,97.92Z"/></svg>