<svg xmlns="http://www.w3.org/2000/svg" viewBox="0 0 122.64 132.02"><defs><style>.cls-1{fill:#373d40;}.cls-2{fill:#e6e7e8;opacity:0.2;}.cls-3{fill:#0cf;}.cls-4{fill:#eaebec;}</style></defs><title>octodata-logo-icon</title><g id="Layer_2" data-name="Layer 2"><g id="Layer_1-2" data-name="Layer 1"><path class="cls-1" d="M99.46,40.34a5.81,5.81,0,0,0-4.43-2H68.46a5.35,5.35,0,0,0-5.32,6.83l0,.13H59.46l0-.12a5.34,5.34,0,0,0-5.32-6.84H27.61A5.69,5.69,0,0,0,21.9,45L24,58.75a7,7,0,0,0,6.81,5.84h18A7.61,7.61,0,0,0,56,59.07l2.14-8.43h6.42l2.15,8.43a7.6,7.6,0,0,0,7.1,5.52h18a7,7,0,0,0,6.81-5.84L100.74,45A5.82,5.82,0,0,0,99.46,40.34ZM50.8,57.76a2.31,2.31,0,0,1-1.94,1.5h-18a1.73,1.73,0,0,1-1.55-1.32L27.17,44.2a.47.47,0,0,1,.06-.39.52.52,0,0,1,.38-.13H54.18l.18,0a.82.82,0,0,1,0,.18ZM95.47,44.2,93.35,57.94a1.73,1.73,0,0,1-1.55,1.32h-18a2.25,2.25,0,0,1-1.94-1.51L68.31,43.88a.82.82,0,0,1,0-.18l.18,0H95a.51.51,0,0,1,.38.13A.5.5,0,0,1,95.47,44.2Z"/><path class="cls-2" d="M68.31,43.88a.82.82,0,0,1,0-.18l.18,0H80.54L91,38.36H68.4a5.35,5.35,0,0,0-5.26,6.83l0,.13H59.46l0-.12a5.34,5.34,0,0,0-5.26-6.84H27.61a5.9,5.9,0,0,0-3.7,1.29c-.15.12-.29.25-.43.38l-.29.3A5.67,5.67,0,0,0,22,42.88,6.08,6.08,0,0,0,21.9,45l.69,4.43L24,58.75a7,7,0,0,0,6.81,5.84h8.52l17.46-8.86,1.29-5.09h6.42l.26,1,4.87-2.47Zm-14,0L50.8,57.76a2.31,2.31,0,0,1-1.94,1.5h-18a1.73,1.73,0,0,1-1.55-1.32L27.17,44.2a.47.47,0,0,1,.06-.39.52.52,0,0,1,.38-.13H54.18l.18,0A.82.82,0,0,1,54.33,43.88Z"/><path class="cls-3" d="M84.83,80.49A1.93,1.93,0,0,0,83.24,80a71.53,71.53,0,0,0-17.07,4.85,6.17,6.17,0,0,0-2.25-.43H59.41a6,6,0,0,0-2.59.58,71.7,71.7,0,0,0-17.41-5,1.93,1.93,0,0,0-1.59.49c-.46.42-2.78,2.87-2.75,9.73,0,7.14,2.1,10.42,2.33,10.78a2,2,0,0,0,1.62.86,1.23,1.23,0,0,0,.27,0A71.57,71.57,0,0,0,56.74,97a6,6,0,0,0,2.67.61h4.51a6.07,6.07,0,0,0,2.34-.47,71.17,71.17,0,0,0,17.1,4.74,1.23,1.23,0,0,0,.27,0,1.94,1.94,0,0,0,1.61-.86c.24-.35,2.3-3.64,2.33-10.78C87.61,83.36,85.3,80.91,84.83,80.49ZM39,90.2A14,14,0,0,1,40,84a68.58,68.58,0,0,1,14.05,4,4.43,4.43,0,0,0-.18,1.21V92.7a4.36,4.36,0,0,0,.16,1.14,69.58,69.58,0,0,1-13.91,3.94A22,22,0,0,1,39,90.2Zm20.45,3.48c-.92,0-1.61-.52-1.61-1V89.29c0-.46.69-1,1.61-1h4.51c.9,0,1.6.53,1.6,1V92.7c0,.46-.68,1-1.6,1Zm23.08,4.1a69.2,69.2,0,0,1-13.3-3.7,4.53,4.53,0,0,0,.22-1.38V89.29a4.37,4.37,0,0,0-.25-1.45A68.18,68.18,0,0,1,82.61,84a14,14,0,0,1,1.07,6.16A21.7,21.7,0,0,1,82.49,97.78Z"/><path class="cls-3" d="M70.07,69.71A30.66,30.66,0,0,1,67,72.34a16,16,0,0,1-17.62.13A17.07,17.07,0,0,0,61.81,76.8a19.36,19.36,0,0,0,10.57-4.16,1.94,1.94,0,0,0,.34-3A1.89,1.89,0,0,0,70.07,69.71Zm16.52-5.12a114.89,114.89,0,0,1-6,9.91C79,77,77.47,79.27,76.31,81.41A62.49,62.49,0,0,1,83.25,80a1.88,1.88,0,0,1,.58,0l1.55-2.37a102.45,102.45,0,0,0,7.68-13.17,6.64,6.64,0,0,1-1.26.12Zm-50.52,0H30.84a6.32,6.32,0,0,1-1.37-.15c1.65,3.18,3.52,6.28,5.3,9.22,1.33,2.22,2.64,4.38,3.75,6.42a1.79,1.79,0,0,1,.89-.08,58.42,58.42,0,0,1,6.08,1.2,99.17,99.17,0,0,0-5.82-10.5C38.48,68.72,37.24,66.67,36.07,64.59Zm33.45-53c-2.12-1.76-5.54-5-6-8.18a6.6,6.6,0,0,0-.85,6A15.32,15.32,0,0,1,53.07,0s-3.36,6.48-1.86,11.76A36.27,36.27,0,0,0,25.64,38.69a6.17,6.17,0,0,1,2-.33h4.05c3.82-13,15.25-22.15,29.13-22.15s25.3,9.18,29.11,22.15H95a5.69,5.69,0,0,1,.83.06A36.2,36.2,0,0,0,69.52,11.54Z"/><path class="cls-3" d="M22.44,113.74h-.11a2.61,2.61,0,0,0-.09,5.22l1.28,0c15.57,0,24-10.82,28.33-20.18-2,.66-4.3,1.37-6.9,2-5.16,8.6-12.36,13-21.43,13Zm6.42-7.1A62.1,62.1,0,0,0,37.41,101h0a14.73,14.73,0,0,1-1.84-5.25,56,56,0,0,1-9.21,6.3,15.64,15.64,0,0,1-7.47,2A14.34,14.34,0,0,1,7.75,98.69c-2.65-3.35-4-8.58.15-13.23a5.18,5.18,0,0,1,4-1.75,7.54,7.54,0,0,1,3.91,1.18c2.16,1.36,4,3.94,2.69,7.14a2.62,2.62,0,0,0,4.84,2c2.07-5,.15-10.49-4.76-13.56a12.61,12.61,0,0,0-6.64-2A10.46,10.46,0,0,0,4,82c-5.2,5.83-5.34,13.66-.35,20a19.6,19.6,0,0,0,15.23,7.36A20.75,20.75,0,0,0,28.86,106.64ZM99.12,119c.42,0,.85,0,1.28,0a2.62,2.62,0,0,0-.09-5.23h-.11c-.37,0-.73,0-1.08,0-9.05,0-16.25-4.35-21.4-12.93-2.61-.6-5-1.31-6.92-2C75.17,108.17,83.58,119,99.12,119Zm14.44-1.08a2.6,2.6,0,0,0-3.31,1.65c-1.59,4.77-7.84,7.27-13.19,7.27a15.62,15.62,0,0,1-3.62-.41c-19-4.5-25.87-21.57-28-29a6.16,6.16,0,0,1-1.5.19H59.41a5.93,5.93,0,0,1-2.13-.39c-2.14,7.51-9,24.67-28.08,29.2a15.62,15.62,0,0,1-3.62.41c-5.35,0-11.6-2.5-13.19-7.27a2.62,2.62,0,1,0-5,1.66C9.91,128.63,18.59,132,25.6,132a20.85,20.85,0,0,0,4.81-.55c19.16-4.56,27.44-20.13,30.67-29l.24-.65.23.65c3.24,8.88,11.52,24.45,30.68,29A20.91,20.91,0,0,0,97,132c7,0,15.69-3.4,18.17-10.84a2.62,2.62,0,0,0-.14-2A2.57,2.57,0,0,0,113.56,117.87Zm5.08-35.93a10.46,10.46,0,0,0-7.91-3.49,12.57,12.57,0,0,0-6.64,2C99.18,83.5,97.26,89,99.33,94a2.61,2.61,0,0,0,4.84-2c-1.31-3.2.53-5.79,2.69-7.14a7.54,7.54,0,0,1,3.91-1.18,5.17,5.17,0,0,1,4,1.74c4.15,4.65,2.8,9.88.15,13.23A14.32,14.32,0,0,1,103.75,104a15.52,15.52,0,0,1-7.47-2,56.7,56.7,0,0,1-9.2-6.28A14.88,14.88,0,0,1,85.25,101a61.17,61.17,0,0,0,8.53,5.61,20.65,20.65,0,0,0,10,2.66A19.6,19.6,0,0,0,119,101.9C124,95.6,123.84,87.76,118.64,81.94Z"/><path class="cls-4" d="M36.07,64.59c1.17,2.08,2.41,4.13,3.6,6.11a99.17,99.17,0,0,1,5.82,10.5l-.1,0c1.35.33,2.62.69,3.81,1a69.46,69.46,0,0,1-7.14-17.63ZM60.79,16.21c-13.88,0-25.31,9.18-29.13,22.15h12.7C50.22,25.22,66.12,18.63,74.7,19.6A29.89,29.89,0,0,0,60.79,16.21Z"/></g></g></svg>