<svg xmlns="http://www.w3.org/2000/svg" viewBox="0 0 204.24 196.7"><defs><style>.cls-1{font-size:43.38px;}.cls-1,.cls-4{fill:#373d40;}.cls-1,.cls-3{font-family:Dosis-Bold, Dosis;font-weight:700;}.cls-2{letter-spacing:-0.02em;}.cls-3{font-size:12.32px;letter-spacing:0.46em;}.cls-3,.cls-6{fill:#0cf;}.cls-5{fill:#e6e7e8;opacity:0.2;}.cls-7{fill:#eaebec;}</style></defs><title>octodata-logo</title><g id="Layer_2" data-name="Layer 2"><g id="Layer_1-2" data-name="Layer 1"><text class="cls-1" transform="translate(0 175.31)">OCT<tspan class="cls-2" x="71.58" y="0">O</tspan><tspan x="95.53" y="0" xml:space="preserve"> DATA</tspan></text><text class="cls-3" transform="translate(5.93 193.78)">KNOWLEDGE SEEKER</text><path class="cls-4" d="M139.27,40.4a5.77,5.77,0,0,0-4.43-2H108.23a5.36,5.36,0,0,0-5.32,6.85l0,.12H99.23l0-.12a5.36,5.36,0,0,0-5.32-6.85H67.33a5.69,5.69,0,0,0-5.72,6.67l2.13,13.75a7,7,0,0,0,6.82,5.85h18a7.61,7.61,0,0,0,7.11-5.53l2.15-8.43h6.43l2.15,8.43a7.62,7.62,0,0,0,7.11,5.53h18.05a7,7,0,0,0,6.82-5.85l2.13-13.75A5.79,5.79,0,0,0,139.27,40.4ZM90.55,57.84a2.32,2.32,0,0,1-1.94,1.51h-18A1.74,1.74,0,0,1,69,58L66.89,44.26a.47.47,0,0,1,.06-.39.52.52,0,0,1,.38-.13H93.94l.18,0a.82.82,0,0,1,0,.18Zm44.74-13.58L133.16,58a1.74,1.74,0,0,1-1.55,1.33H113.56a2.27,2.27,0,0,1-1.94-1.52l-3.54-13.89a.82.82,0,0,1,0-.18l.18,0h26.61a.51.51,0,0,1,.38.13A.55.55,0,0,1,135.29,44.26Z"/><path class="cls-5" d="M108.08,43.94a.82.82,0,0,1,0-.18l.18,0h12.1l10.51-5.33H108.18a5.36,5.36,0,0,0-5.27,6.85l0,.12H99.23l0-.12A5.35,5.35,0,0,0,94,38.41H67.33a5.86,5.86,0,0,0-3.71,1.3,5.08,5.08,0,0,0-.43.38,4.11,4.11,0,0,0-.29.3,5.67,5.67,0,0,0-1.23,2.55,6.13,6.13,0,0,0-.06,2.14l.69,4.43,1.44,9.32a7,7,0,0,0,6.83,5.85H79.1l17.47-8.87,1.3-5.09h6.43l.26,1,4.88-2.47Zm-14,0-3.54,13.9a2.32,2.32,0,0,1-1.94,1.51h-18A1.74,1.74,0,0,1,69,58L66.89,44.26a.47.47,0,0,1,.06-.39.52.52,0,0,1,.38-.13H93.94l.18,0A.82.82,0,0,1,94.09,43.94Z"/><path class="cls-6" d="M124.63,80.6a2,2,0,0,0-1.59-.49A71.63,71.63,0,0,0,105.94,85a6.17,6.17,0,0,0-2.25-.43H99.17a6,6,0,0,0-2.59.58,71.65,71.65,0,0,0-17.44-5,2,2,0,0,0-1.59.49c-.46.42-2.78,2.88-2.75,9.74,0,7.16,2.1,10.44,2.33,10.8a2,2,0,0,0,1.62.86H79a71.86,71.86,0,0,0,17.48-4.9,6,6,0,0,0,2.67.62h4.52a6.07,6.07,0,0,0,2.34-.47A72.39,72.39,0,0,0,123.16,102h.26a1.94,1.94,0,0,0,1.62-.86c.24-.35,2.31-3.64,2.33-10.8C127.41,83.48,125.09,81,124.63,80.6ZM78.7,90.32a14,14,0,0,1,1.07-6.17,69,69,0,0,1,14.07,4,4.5,4.5,0,0,0-.18,1.22v3.41A4.3,4.3,0,0,0,93.82,94a69,69,0,0,1-13.93,3.94A21.82,21.82,0,0,1,78.7,90.32Zm20.47,3.49c-.92,0-1.61-.52-1.61-1V89.42c0-.47.69-1,1.61-1h4.52c.9,0,1.6.52,1.6,1v3.41c0,.46-.68,1-1.6,1Zm23.12,4.1A69.39,69.39,0,0,1,109,94.21a4.25,4.25,0,0,0,.23-1.38V89.42a4.43,4.43,0,0,0-.25-1.46,68.83,68.83,0,0,1,13.47-3.81,14.09,14.09,0,0,1,1.06,6.17A21.55,21.55,0,0,1,122.29,97.91Z"/><path class="cls-6" d="M109.85,69.81a31.2,31.2,0,0,1-3.07,2.63,16,16,0,0,1-17.64.13,17,17,0,0,0,12.44,4.33,19.35,19.35,0,0,0,10.58-4.16,1.94,1.94,0,0,0,.34-3A1.88,1.88,0,0,0,109.85,69.81Zm16.54-5.13a111.21,111.21,0,0,1-6,9.92c-1.64,2.51-3.13,4.78-4.28,6.92A62.49,62.49,0,0,1,123,80.11a1.67,1.67,0,0,1,.59,0c.5-.79,1-1.58,1.55-2.38a102.28,102.28,0,0,0,7.69-13.19,6.72,6.72,0,0,1-1.26.12Zm-50.59,0H70.57a6.34,6.34,0,0,1-1.38-.15c1.65,3.18,3.52,6.28,5.31,9.24,1.33,2.21,2.64,4.38,3.76,6.42a1.87,1.87,0,0,1,.88-.08c2.13.31,4.18.73,6.09,1.2A99.24,99.24,0,0,0,79.41,70.8C78.21,68.82,77,66.77,75.8,64.68Zm33.5-53.12c-2.13-1.77-5.55-5-6-8.19a6.59,6.59,0,0,0-.86,6A15.32,15.32,0,0,1,92.83,0S89.46,6.49,91,11.78a36.29,36.29,0,0,0-25.6,27,6.17,6.17,0,0,1,2-.33h4.06c3.82-13,15.27-22.18,29.16-22.18s25.33,9.2,29.16,22.18h5.13a7.54,7.54,0,0,1,.83.06A36.24,36.24,0,0,0,109.3,11.56Z"/><path class="cls-6" d="M62.15,113.9H62a2.62,2.62,0,0,0-.09,5.24l1.28,0c15.59,0,24-10.84,28.38-20.21-2,.66-4.31,1.37-6.92,2-5.16,8.62-12.38,13-21.45,13Zm6.43-7.11a62.37,62.37,0,0,0,8.57-5.64h0a14.83,14.83,0,0,1-1.84-5.25,56.21,56.21,0,0,1-9.23,6.3,15.52,15.52,0,0,1-7.47,2,14.32,14.32,0,0,1-11.16-5.36c-2.65-3.35-4-8.59.15-13.24a5.16,5.16,0,0,1,4-1.75A7.55,7.55,0,0,1,55.48,85c2.16,1.36,4,3.95,2.69,7.15a2.63,2.63,0,0,0,2.43,3.62A2.61,2.61,0,0,0,63,94.15c2.07-5,.15-10.5-4.77-13.58a12.62,12.62,0,0,0-6.65-2,10.47,10.47,0,0,0-7.92,3.5c-5.21,5.83-5.34,13.68-.34,20a19.62,19.62,0,0,0,15.25,7.37A20.8,20.8,0,0,0,68.58,106.79Zm70.36,12.33,1.28,0a2.62,2.62,0,0,0-.09-5.24H140c-.37,0-.73,0-1.09,0-9.06,0-16.27-4.36-21.43-12.94-2.6-.61-5-1.32-6.92-2C115,108.32,123.37,119.12,138.94,119.12ZM153.39,118a2.57,2.57,0,0,0-.83-.13,2.62,2.62,0,0,0-2.48,1.79c-1.59,4.78-7.85,7.28-13.2,7.28a15.65,15.65,0,0,1-3.63-.41c-19-4.52-25.91-21.6-28.06-29a5.71,5.71,0,0,1-1.5.2H99.17A6,6,0,0,1,97,97.32c-2.13,7.51-9,24.7-28.11,29.24a15.65,15.65,0,0,1-3.63.41c-5.35,0-11.61-2.5-13.2-7.28a2.63,2.63,0,0,0-2.49-1.79,2.51,2.51,0,0,0-.82.13,2.62,2.62,0,0,0-1.66,3.32c2.49,7.45,11.17,10.85,18.19,10.85a20.94,20.94,0,0,0,4.82-.54c19.19-4.57,27.48-20.17,30.72-29.06l.23-.64.24.64c3.24,8.89,11.53,24.49,30.72,29.06a20.94,20.94,0,0,0,4.82.54c7,0,15.71-3.4,18.19-10.85a2.62,2.62,0,0,0-.14-2A2.58,2.58,0,0,0,153.39,118Zm5.1-36a10.49,10.49,0,0,0-7.92-3.49,12.54,12.54,0,0,0-6.66,2c-4.92,3.07-6.83,8.53-4.76,13.57a2.61,2.61,0,1,0,4.84-2c-1.31-3.21.54-5.8,2.7-7.15a7.47,7.47,0,0,1,3.92-1.19,5.2,5.2,0,0,1,4,1.75c4.16,4.66,2.8,9.9.15,13.25a14.34,14.34,0,0,1-11.16,5.35,15.52,15.52,0,0,1-7.47-2,56.43,56.43,0,0,1-9.22-6.28,14.78,14.78,0,0,1-1.84,5.26,62.64,62.64,0,0,0,8.55,5.62,20.69,20.69,0,0,0,10,2.66A19.6,19.6,0,0,0,158.83,102C163.83,95.73,163.69,87.88,158.49,82.05Z"/><path class="cls-7" d="M75.8,64.68c1.18,2.09,2.41,4.14,3.61,6.12a99.24,99.24,0,0,1,5.82,10.51l-.1,0c1.35.33,2.63.68,3.82,1A69.48,69.48,0,0,1,81.8,64.68Zm24.75-48.45c-13.89,0-25.34,9.19-29.16,22.18H84.1C90,25.26,105.89,18.65,114.48,19.63A29.83,29.83,0,0,0,100.55,16.23Z"/></g></g></svg>