<svg xmlns="http://www.w3.org/2000/svg" viewBox="0 0 276.05 69.8"><defs><style>.cls-1{font-size:43.38px;font-family:Dosis-Bold, Dosis;font-weight:700;}.cls-1,.cls-2{fill:#373d40;}.cls-3{fill:#e6e7e8;opacity:0.2;}.cls-4{fill:#0cf;}.cls-5{fill:#eaebec;}</style></defs><title>octodata-logo-web_1</title><g id="Layer_2" data-name="Layer 2"><g id="Layer_1-2" data-name="Layer 1"><text class="cls-1" transform="translate(73.01 51.91)">OCTO DATA</text><path class="cls-2" d="M52.59,21.33a3.06,3.06,0,0,0-2.34-1h-14a2.83,2.83,0,0,0-2.81,3.62V24h-2l0-.06a2.83,2.83,0,0,0-2.81-3.62h-14a3,3,0,0,0-3,3.52l1.12,7.26a3.72,3.72,0,0,0,3.61,3.09h9.53a4,4,0,0,0,3.75-2.92l1.14-4.45h3.39l1.13,4.45A4,4,0,0,0,39,34.15h9.53a3.7,3.7,0,0,0,3.6-3.09l1.12-7.26A3,3,0,0,0,52.59,21.33ZM26.86,30.54a1.23,1.23,0,0,1-1,.8H16.31a.91.91,0,0,1-.82-.71l-1.12-7.26a.23.23,0,0,1,0-.21.3.3,0,0,1,.2-.06H28.74a.34.34,0,0,1,0,.09Zm23.62-7.17-1.12,7.26a.92.92,0,0,1-.82.71H39a1.23,1.23,0,0,1-1-.8L36.12,23.2a.51.51,0,0,1,0-.09H50.25a.31.31,0,0,1,.2.06A.27.27,0,0,1,50.48,23.37Z"/><path class="cls-3" d="M36.12,23.2a.51.51,0,0,1,0-.09h6.49l5.54-2.82h-12a2.82,2.82,0,0,0-2.78,3.62V24h-2l0-.06a2.82,2.82,0,0,0-2.78-3.62H14.6a3.1,3.1,0,0,0-2,.69,2.09,2.09,0,0,0-.22.2,1.21,1.21,0,0,0-.16.16,3,3,0,0,0-.65,1.34,3.3,3.3,0,0,0,0,1.13l.36,2.34.77,4.93a3.7,3.7,0,0,0,3.6,3.08h4.5L30,29.47l.69-2.69h3.39l.14.55L36.83,26Zm-7.39,0-1.87,7.34a1.23,1.23,0,0,1-1,.8H16.31a.91.91,0,0,1-.82-.71l-1.12-7.26a.23.23,0,0,1,0-.21.3.3,0,0,1,.2-.06H28.74A.34.34,0,0,1,28.73,23.2Z"/><path class="cls-4" d="M44.85,42.56A1,1,0,0,0,44,42.3a37.24,37.24,0,0,0-9,2.57,3.15,3.15,0,0,0-1.19-.23H31.41a3.27,3.27,0,0,0-1.37.3,38.1,38.1,0,0,0-9.2-2.64,1,1,0,0,0-.84.26c-.25.22-1.47,1.52-1.46,5.14,0,3.78,1.11,5.52,1.24,5.7a1,1,0,0,0,.85.46h.14A37.92,37.92,0,0,0,30,51.27a3.28,3.28,0,0,0,1.41.32H33.8A3.11,3.11,0,0,0,35,51.34a37.94,37.94,0,0,0,9,2.51h.14a1,1,0,0,0,.85-.46c.13-.18,1.22-1.92,1.23-5.7C46.32,44.08,45.1,42.78,44.85,42.56ZM20.6,47.69a7.41,7.41,0,0,1,.57-3.26,37.22,37.22,0,0,1,7.43,2.14,2.3,2.3,0,0,0-.09.64V49a2.49,2.49,0,0,0,.08.61,36.72,36.72,0,0,1-7.36,2.08A11.49,11.49,0,0,1,20.6,47.69Zm10.81,1.84c-.48,0-.85-.27-.85-.52v-1.8c0-.24.37-.51.85-.51H33.8c.47,0,.84.27.84.51V49c0,.25-.36.52-.84.52ZM43.62,51.7a37.11,37.11,0,0,1-7-2A2.3,2.3,0,0,0,36.7,49v-1.8a2.22,2.22,0,0,0-.13-.77,36.75,36.75,0,0,1,7.11-2,7.29,7.29,0,0,1,.57,3.26A11.44,11.44,0,0,1,43.62,51.7Z"/><path class="cls-4" d="M37.05,36.86a16.51,16.51,0,0,1-1.62,1.39,8.46,8.46,0,0,1-9.31.07,9,9,0,0,0,6.56,2.29,10.24,10.24,0,0,0,5.59-2.2,1,1,0,0,0,.18-1.6A1,1,0,0,0,37.05,36.86Zm8.74-2.71c-1,1.9-2.14,3.65-3.18,5.24-.86,1.32-1.65,2.53-2.26,3.66A33,33,0,0,1,44,42.3a.81.81,0,0,1,.31,0c.26-.41.54-.83.82-1.26a53.59,53.59,0,0,0,4.05-7,3.6,3.6,0,0,1-.66.06Zm-26.72,0H16.31a3.55,3.55,0,0,1-.73-.08c.87,1.68,1.86,3.32,2.8,4.88.71,1.17,1.4,2.31,2,3.39a.94.94,0,0,1,.47,0,32.58,32.58,0,0,1,3.21.63A52.62,52.62,0,0,0,21,37.38C20.35,36.34,19.69,35.25,19.07,34.15Zm17.69-28c-1.12-.93-2.93-2.66-3.2-4.32A3.49,3.49,0,0,0,33.11,5,8.1,8.1,0,0,1,28.06,0s-1.78,3.43-1,6.22A19.16,19.16,0,0,0,13.56,20.46a3,3,0,0,1,1-.18h2.14a16,16,0,0,1,30.8,0h2.71a3.27,3.27,0,0,1,.44,0A19.15,19.15,0,0,0,36.76,6.1Z"/><path class="cls-4" d="M11.86,60.14h0a1.38,1.38,0,0,0-.05,2.76l.67,0c8.24,0,12.68-5.73,15-10.67-1,.35-2.28.72-3.65,1-2.73,4.55-6.54,6.86-11.33,6.86Zm3.4-3.75a33.27,33.27,0,0,0,4.52-3h0a7.83,7.83,0,0,1-1-2.77A30.22,30.22,0,0,1,13.94,54,8.29,8.29,0,0,1,10,55,7.56,7.56,0,0,1,4.1,52.18a5.19,5.19,0,0,1,.08-7,2.71,2.71,0,0,1,2.09-.93,3.91,3.91,0,0,1,2.07.63,3,3,0,0,1,1.43,3.77,1.38,1.38,0,1,0,2.56,1.05,5.75,5.75,0,0,0-2.52-7.17,6.66,6.66,0,0,0-3.51-1,5.54,5.54,0,0,0-4.19,1.84A7.9,7.9,0,0,0,1.93,53.9,10.37,10.37,0,0,0,10,57.79,11,11,0,0,0,15.26,56.39ZM52.41,62.9l.68,0A1.38,1.38,0,0,0,53,60.12h-.63c-4.79,0-8.59-2.3-11.32-6.83-1.37-.33-2.62-.7-3.65-1C39.75,57.19,44.19,62.9,52.41,62.9ZM60,62.32a1.61,1.61,0,0,0-.43-.07,1.37,1.37,0,0,0-1.31,1c-.85,2.52-4.15,3.84-7,3.84a8.34,8.34,0,0,1-1.91-.21c-10-2.39-13.68-11.41-14.82-15.34a3.42,3.42,0,0,1-.79.1H31.41a3.24,3.24,0,0,1-1.13-.2c-1.12,4-4.77,13-14.84,15.44a8.43,8.43,0,0,1-1.92.21c-2.82,0-6.13-1.32-7-3.84a1.37,1.37,0,0,0-1.31-1,1.62,1.62,0,0,0-.44.07,1.39,1.39,0,0,0-.87,1.75c1.31,3.94,5.9,5.73,9.6,5.73a11.07,11.07,0,0,0,2.55-.28C26.21,67.11,30.59,58.87,32.3,54.18l.12-.35.13.35c1.71,4.69,6.09,12.93,16.22,15.34a11,11,0,0,0,2.54.28c3.71,0,8.3-1.79,9.61-5.73a1.33,1.33,0,0,0-.08-1A1.38,1.38,0,0,0,60,62.32Zm2.69-19a5.49,5.49,0,0,0-4.18-1.85,6.66,6.66,0,0,0-3.51,1,5.75,5.75,0,0,0-2.52,7.17,1.37,1.37,0,0,0,1.28.86,1.37,1.37,0,0,0,1.28-1.91,3,3,0,0,1,1.42-3.77,4,4,0,0,1,2.07-.63,2.73,2.73,0,0,1,2.1.93,5.19,5.19,0,0,1,.08,7A7.59,7.59,0,0,1,54.86,55a8.17,8.17,0,0,1-4-1.05A30.36,30.36,0,0,1,46,50.62a7.69,7.69,0,0,1-1,2.78,32.88,32.88,0,0,0,4.52,3,11,11,0,0,0,5.27,1.4,10.34,10.34,0,0,0,8-3.89A7.89,7.89,0,0,0,62.73,43.33Z"/><path class="cls-5" d="M19.07,34.15c.62,1.1,1.28,2.19,1.91,3.23a52.62,52.62,0,0,1,3.07,5.55H24c.71.17,1.39.36,2,.55a36.58,36.58,0,0,1-3.77-9.32ZM32.14,8.57a16,16,0,0,0-15.4,11.71h6.72c3.09-6.94,11.5-10.43,16-9.92A15.91,15.91,0,0,0,32.14,8.57Z"/></g></g></svg>