<svg id="Layer_1" data-name="Layer 1" xmlns="http://www.w3.org/2000/svg" viewBox="0 0 2611.694 1215.602"><defs><style>.cls-1,.cls-2,.cls-7{isolation:isolate;}.cls-2{font-size:512px;}.cls-2,.cls-7,.cls-9{fill:#6c3;}.cls-2,.cls-7{font-family:Righteous-Regular, Righteous;}.cls-3{letter-spacing:-0.005em;}.cls-4{letter-spacing:-0.004em;}.cls-5{letter-spacing:-0.046em;}.cls-6{letter-spacing:-0.01em;}.cls-7{font-size:240px;}.cls-8{letter-spacing:-0.006em;}</style></defs><title>sunny_tree_logo_color_green</title><g class="cls-1"><text class="cls-2" transform="translate(52.856 913.36)"><tspan class="cls-3">S</tspan><tspan x="310.25" y="0">un</tspan><tspan class="cls-4" x="885.75" y="0">n</tspan><tspan x="1171.5" y="0">y</tspan><tspan class="cls-5" x="1459.75" y="0">T</tspan><tspan class="cls-6" x="1732.25" y="0">r</tspan><tspan class="cls-4" x="1939.25" y="0">e</tspan><tspan x="2206" y="0">e</tspan></text><text class="cls-7" transform="translate(1523.956 1129.36)">S<tspan class="cls-8" x="146.602" y="0">o</tspan><tspan x="284.18" y="0">ftwa</tspan><tspan class="cls-6" x="811.875" y="0">r</tspan><tspan x="908.906" y="0">e</tspan></text></g><path class="cls-9" d="M1151.656,600.6c-5.8.6-11.5.8-17,.9-.3-.2-.7-.4-1-.6a176.54,176.54,0,0,0-19.1-10.4c-6.6-3-13.3-5.8-20.1-8.5-3.4-1.4-6.8-2.7-10.3-3.9-3.5-1.1-7-2.1-10.5-3.1-7.1-2-14.2-3.9-21.4-5.7-7.2-1.6-14.5-2.7-21.8-3.9-3.7-.6-7.3-1.1-11-1.6-3.7-.4-7.4-.6-11.1-.9-7.4-.5-14.9-1-22.3-1.2-29.8-.3-59.9,3.2-88.5,11.3-3.6,1-7.1,2.1-10.6,3.2-3.5,1.2-7,2.4-10.5,3.8a213.63,213.63,0,0,0-20.3,8.7c-3.3,1.6-6.5,3.4-9.7,5.2-3.1,1.8-6.3,3.6-9.3,5.7l-.9.6-16.1.5a100.885,100.885,0,0,1,17-13.5c3-2.1,6.2-3.9,9.3-5.7,3.2-1.8,6.4-3.6,9.7-5.2a203.153,203.153,0,0,1,20.3-8.7c.7-.2,1.3-.5,2-.7-1,.2-2.1.5-3.1.7a207.741,207.741,0,0,1,51.8-21.6c-2.4-3.4-4.9-6.9-7.2-10.7-7.8-12.1-14.6-26.5-17.9-41.9a117,117,0,0,1-1-45.6,129,129,0,0,1,14.3-40.9,172.572,172.572,0,0,1,23.7-33.5,227.815,227.815,0,0,1,28.9-26.8,221.47,221.47,0,0,1,21.4-14.9,221.864,221.864,0,0,1,21.5-17.2c-6,11.4-12,22.5-17.5,33.7a346.352,346.352,0,0,0-14.4,33.6c-2,5.6-3.8,11.2-5.3,16.8s-2.8,11.1-3.7,16.6a118.03,118.03,0,0,0-1,31.8,85.6,85.6,0,0,0,8.1,28.1c4.1,8.5,9.9,16,17.2,23.7s16.2,15.6,25.7,24.7c4.7,4.6,9.6,9.5,14.4,14.9,2.7,3,5.3,6.3,7.9,9.7a214.639,214.639,0,0,1,40.6,17.3c.4.1.9.3,1.3.4,3.4,1.3,6.8,2.6,10.3,3.9,6.8,2.7,13.5,5.5,20.1,8.5s12.8,6.8,19.1,10.4A152.217,152.217,0,0,1,1151.656,600.6Z"/><path class="cls-9" d="M1314.356,353.8c-2.6,3.3-7.2,8.9-13.5,15.6a274.19,274.19,0,0,1-37.7,33.6c-28.8,21-57.8,32.4-86.3,33.9-28.6,1.6-61-6.6-96.4-24.2a379.612,379.612,0,0,1-66.3-42.7,390.8,390.8,0,0,1,44.8-38.2c5.9-4.3,12-8.5,17.9-12.2,32.7-20.8,63.6-32.1,91.8-33.6,28.1-1.5,57.8,6.4,88.2,23.7C1285.756,326.1,1307.056,346.5,1314.356,353.8Z"/><path class="cls-9" d="M1242.656,140.1c-5.9,35.1-18.8,63.5-38.1,84.6-19.4,21.1-48.3,37.9-86,49.9-33.9,10.9-65.3,14.6-77.3,15.8a377.252,377.252,0,0,1,9.7-79.9c8.9-37.7,23.2-67.4,42.3-88.2,19.1-20.7,45.9-35.7,79.7-44.6a275.96,275.96,0,0,1,67.7-8.6h4.3A280.894,280.894,0,0,1,1242.656,140.1Z"/><path class="cls-9" d="M1029.056,173.2a137.683,137.683,0,0,1-1.4,19.5c-3.7,25.3-15.3,50.4-34.6,74.6q-2.85,3.6-6,7.2a274.175,274.175,0,0,1-54.6,47.7,276.547,276.547,0,0,1-38.1-59.9c-14.9-32.3-20.4-63-16.3-91.3,4.1-28.4,18.5-58.6,42.7-89.7,7-9,14.8-18,23.1-26.8a383.347,383.347,0,0,1,31.9-29.9,379.145,379.145,0,0,1,37.1,71.4C1023.656,124.1,1029.056,149.9,1029.056,173.2Z"/><path class="cls-9" d="M885.656,370.1a385.719,385.719,0,0,1-66.3,42.7c-35.4,17.6-67.8,25.8-96.4,24.2-28.5-1.5-57.5-13-86.3-33.9a268.3,268.3,0,0,1-37.7-33.6c-6.3-6.8-10.9-12.3-13.5-15.6a278.126,278.126,0,0,1,57.5-44.1c30.4-17.2,60.1-25.2,88.2-23.7,28.2,1.5,59.1,12.8,91.9,33.6,5.9,3.8,12,7.9,17.9,12.2A377.231,377.231,0,0,1,885.656,370.1Z"/><path class="cls-9" d="M858.456,290.3a381.772,381.772,0,0,1-77.3-15.8c-37.6-12.1-66.5-28.9-85.9-49.9-19.3-21-32.2-49.5-38.1-84.6a271.387,271.387,0,0,1-2.3-71,277.689,277.689,0,0,1,71.9,8.5c33.8,8.9,60.6,23.9,79.7,44.6,19.1,20.8,33.4,50.5,42.3,88.2A379.324,379.324,0,0,1,858.456,290.3Z"/></svg>